<svg width="27" height="27" viewBox="0 0 27 27" fill="none" xmlns="http://www.w3.org/2000/svg">
<path d="M11.7322 7.12214C11.6131 6.55018 11.3828 6.49535 11.1737 6.44728C11.0033 6.40662 10.8072 6.36916 10.6111 6.33171C10.4175 6.29471 10.083 6.31198 9.75349 6.5791C9.42204 6.84315 8.51536 7.46535 8.21716 9.02627C7.91946 10.5846 8.68663 12.2949 8.79148 12.5341C8.89924 12.7711 10.156 16.4364 12.9002 18.2782C15.1823 19.8071 15.7281 19.695 16.2755 19.7454C16.8258 19.7937 18.1625 19.3105 18.5486 18.6159C18.9342 17.9239 19.0554 17.2896 19.0082 17.1426C18.961 16.9956 18.7799 16.8799 18.515 16.6642C18.2526 16.4491 16.9535 15.4082 16.7029 15.2494C16.4541 15.0936 16.268 15.004 16.0116 15.2824C15.7552 15.5607 15.0546 16.1682 14.8423 16.3468C14.6301 16.5254 14.4556 16.5191 14.1902 16.3061C13.9278 16.0909 13.0451 15.576 12.1284 14.2808C11.4151 13.2734 11.0225 12.1243 10.9114 11.773C10.7999 11.4243 10.9853 11.2812 11.1634 11.1502C11.3235 11.0347 11.5295 10.8359 11.7126 10.6788C11.8932 10.5212 11.9666 10.4 12.1062 10.2075C12.2434 10.0146 12.2304 9.82 12.1882 9.6469C12.146 9.4738 11.8739 7.79853 11.7322 7.12214Z"/>
<path d="M3.89061 21.2727L4.36495 21.4308L4.453 21.1666L4.2748 20.9527L3.89061 21.2727ZM2.38889 25.7778L1.91454 25.6197L1.63528 26.4575L2.49735 26.2659L2.38889 25.7778ZM8.03515 24.5231L8.25403 24.0736L8.09708 23.9972L7.92669 24.035L8.03515 24.5231ZM25.5 13.2778C25.5 19.9052 20.1274 25.2778 13.5 25.2778V26.2778C20.6797 26.2778 26.5 20.4575 26.5 13.2778H25.5ZM13.5 1.27783C20.1274 1.27783 25.5 6.65042 25.5 13.2778H26.5C26.5 6.09813 20.6797 0.277832 13.5 0.277832V1.27783ZM1.5 13.2778C1.5 6.65042 6.87258 1.27783 13.5 1.27783V0.277832C6.3203 0.277832 0.5 6.09813 0.5 13.2778H1.5ZM4.2748 20.9527C2.54195 18.8722 1.5 16.1973 1.5 13.2778H0.5C0.5 16.4397 1.62947 19.3391 3.50642 21.5927L4.2748 20.9527ZM2.86323 25.936L4.36495 21.4308L3.41627 21.1146L1.91454 25.6197L2.86323 25.936ZM7.92669 24.035L2.28042 25.2898L2.49735 26.2659L8.14362 25.0112L7.92669 24.035ZM13.5 25.2778C11.6178 25.2778 9.83822 24.8449 8.25403 24.0736L7.81628 24.9727C9.53387 25.8089 11.4629 26.2778 13.5 26.2778V25.2778Z"/>
</svg>
